<?xml version="1.0" encoding="UTF-8" standalone="no"?>
<!-- Created with Inkscape (http://www.inkscape.org/) -->

<svg
xmlns:dc="http://purl.org/dc/elements/1.1/"
xmlns:cc="http://creativecommons.org/ns#"
xmlns:rdf="http://www.w3.org/1999/02/22-rdf-syntax-ns#"
xmlns:svg="http://www.w3.org/2000/svg"
xmlns="http://www.w3.org/2000/svg"
xmlns:sodipodi="http://sodipodi.sourceforge.net/DTD/sodipodi-0.dtd"
xmlns:inkscape="http://www.inkscape.org/namespaces/inkscape"
width="343pt"
height="340pt"
id="svg3227"
version="1.1"
inkscape:version="0.48.1 "
sodipodi:docname="New document 17">
<defs
id="defs3229" />
<sodipodi:namedview
pagecolor="#ffffff"
bordercolor="#666666"
borderopacity="1.0"
inkscape:pageopacity="0.0"
inkscape:pageshadow="2"
inkscape:zoom="0.8"
inkscape:cx="2.5"
inkscape:cy="210"
inkscape:document-units="pt"
inkscape:current-layer="layer1"
id="namedview3231"
showgrid="false"
inkscape:window-width="1341"
inkscape:window-height="717"
inkscape:window-x="200"
inkscape:window-y="200"
inkscape:window-maximized="0" />
<metadata
id="metadata3233">
<rdf:RDF>
<cc:Work
rdf:about="">
<dc:format>image/svg+xml</dc:format>
<dc:type
rdf:resource="http://purl.org/dc/dcmitype/StillImage" />
<dc:title></dc:title>
</cc:Work>
</rdf:RDF>
</metadata>
<g
inkscape:label="Layer 1"
inkscape:groupmode="layer"
id="layer1">
<path
style="fill:#00CCCC"
inkscape:connector-curvature="0"
id="path20"
d="m 1.664057,169.57011 c 0,-4.28872 0.692406,-8.71428 2.168266,-13.25653 7.311232,-22.50191 28.475304,-31.35947 53.286261,-31.35947 13.765752,0 28.653768,2.72672 42.921876,7.3625 33.55209,10.90174 60.26721,27.20503 78.27148,43.42724 -9.86485,-22.13597 -17.11451,-52.58168 -17.11451,-87.86049 0,-42.042 15.76574,-84.084 52.5525,-84.084 36.78674,0 52.5525,42.042 52.5525,84.084 0,35.27881 -7.24967,65.72452 -17.11454,87.86049 18.00427,-16.22221 44.71939,-32.5255 78.27148,-43.42724 14.26768,-4.63578 29.15613,-7.3625 42.92189,-7.3625 24.81077,0 45.97422,8.85799 53.28608,31.35947 1.4762,4.54268 2.16859,8.96739 2.16859,13.25653 0,28.74428 -31.10507,51.40235 -65.8974,62.70736 -25.72025,8.35692 -50.05571,11.78463 -70.87164,11.78463 -6.33891,0 -12.35136,-0.31789 -17.97683,-0.9112 20.99184,12.11024 44.75242,32.47959 65.48856,61.02053 14.40496,19.82667 24.47574,42.80219 24.47574,62.80131 0,14.3096 -5.15571,27.0953 -17.56839,36.11365 -7.7456,5.62749 -16.0133,8.11425 -24.44186,8.11425 -23.95707,0 -49.21702,-20.08948 -67.49713,-45.24978 -20.73615,-28.54137 -32.7666,-57.43366 -37.79705,-81.1402 -5.03045,23.70654 -17.0609,52.59883 -37.79704,81.1402 -18.28012,25.1603 -43.54007,45.24978 -67.49715,45.24978 -8.42856,0 -16.696249,-2.48671 -24.441844,-8.11425 -12.412686,-9.01835 -17.568408,-21.80405 -17.568408,-36.11365 0,-19.99912 10.070775,-42.97464 24.475737,-62.80131 20.736145,-28.54094 44.496735,-48.91029 65.488565,-61.02053 -5.62548,0.59331 -11.63791,0.9112 -17.97682,0.9112 -20.81593,0 -45.151387,-3.42771 -70.871653,-11.78463 C 32.768158,220.97246 1.664057,198.31482 1.664057,169.57011 z m 191.064863,54.94975 c 0,11.6096 9.4114,21.021 21.02101,21.021 11.60958,0 21.02099,-9.4114 21.02099,-21.021 0,-11.6096 -9.41141,-21.021 -21.02099,-21.021 -11.60961,0 -21.02101,9.4114 -21.02101,21.021 z" />
</g>
</svg>
